#!OML:ASF H:\MichaelJackson\Top Level 1\Subject 1\Session 1\male.ASF
:FULLY-SPECIFIED
:DEGREES
260
root 3.72248 15.0511 4.93637 3.68395 -7.04196 -9.94069
lowerback 1.18902 6.40698 5.20972
upperback -0.734718 8.66232 2.20682
thorax -0.996393 4.29525 -0.752954
lowerneck -9.0454 -2.74373 2.28863
upperneck 7.49548 -4.02862 0.575969
head 4.04237 -1.89153 -0.467769
rclavicle -1.09381e-013 1.43125e-014
rhumerus -3.64753 40.2896 -87.1147
rradius 67.1499
rwrist 7.46296
rhand -26.4743 -15.821
rfingers 7.12502
rthumb 0.0876939 -45.8008
lclavicle -1.09381e-013 1.43125e-014
lhumerus -57.5133 -7.4691 83.4134
lradius 66.9856
lwrist 23.2345
lhand -9.50324 14.6978
lfingers 7.12502
lthumb 16.462 44.0193
rfemur 20.1217 -3.70616 14.2378
rtibia 31.0179
rfoot -8.627 8.81396
rtoes -28.3629
lfemur -44.3772 1.93663 3.32551
ltibia 20.5346
lfoot 1.71062 9.09228
ltoes 16.7008
261
root 3.80274 15.0902 5.25336 3.63495 -6.08197 -9.43208
lowerback 0.242793 6.4519 4.69896
upperback -1.03852 8.66472 2.11331
thorax -0.842312 4.30144 -0.481626
lowerneck -8.97903 -3.1259 2.0968
upperneck 7.99362 -4.5487 0.828749
head 4.21365 -2.13427 -0.387377
rclavicle 8.84716e-014 1.27222e-014
rhumerus -5.63151 39.2982 -87.1852
rradius 68.8243
rwrist 6.54047
rhand -26.6055 -15.6403
rfingers 7.12502
rthumb -0.0390438 -45.62
lclavicle 8.84716e-014 1.27222e-014
lhumerus -58.4401 -7.66753 83.5817
lradius 66.5182
lwrist 23.5366
lhand -7.23177 14.7956
lfingers 7.12502
lthumb 18.6479 43.9218
rfemur 20.4515 -2.87136 14.4291
rtibia 31.2408
rfoot -3.66682 7.86413
rtoes -27.6984
lfemur -44.8112 1.8666 1.76219
ltibia 21.856
lfoot 3.50044 6.97816
ltoes 13.7084
262
root 3.8827 15.1329 5.55908 3.48264 -5.1706 -8.75913
lowerback -0.521618 6.48304 4.01646
upperback -1.25247 8.66473 1.97033
thorax -0.714167 4.30813 -0.184891
lowerneck -8.92425 -3.49636 1.88691
upperneck 8.35717 -5.05132 1.08747
head 4.34357 -2.37015 -0.299766
rclavicle 2.88176e-014 -3.97569e-016
rhumerus -7.53741 38.1951 -87.2451
rradius 70.4267
rwrist 5.59699
rhand -26.7491 -15.4125
rfingers 7.12502
rthumb -0.17778 -45.3922
lclavicle 2.88176e-014 -3.97569e-016
lhumerus -59.1931 -7.78567 83.6941
lradius 66.1396
lwrist 23.7936
lhand -5.04159 15.0303
lfingers 7.12502
lthumb 20.7535 43.9405
rfemur 20.2841 -1.98625 14.4989
rtibia 32.4897
rfoot 1.41522 6.94793
rtoes -26.3045
lfemur -45.1795 1.98737 -0.100993
ltibia 23.2546
lfoot 5.14732 4.83053
ltoes 11.2463
263
root 3.96095 15.1773 5.85185 3.19133 -4.31005 -7.95888
lowerback -1.0605 6.49207 3.21559
upperback -1.35721 8.65353 1.79006
thorax -0.610893 4.31021 0.117301
lowerneck -8.86887 -3.8416 1.68186
upperneck 8.57872 -5.51703 1.32603
head 4.42477 -2.59073 -0.215841
rclavicle 8.16974e-014 2.62396e-014
rhumerus -9.32514 36.9867 -87.2968
rradius 71.9176
rwrist 4.63804
rhand -26.9118 -15.1747
rfingers 7.12502
rthumb -0.334861 -45.1542
lclavicle 8.16974e-014 2.62396e-014
lhumerus -59.7761 -7.78967 83.7296
lradius 65.8318
lwrist 23.977
lhand -3.02299 15.2912
lfingers 7.12502
lthumb 22.6919 43.977
rfemur 19.682 -1.1226 14.4298
rtibia 34.7224
rfoot 6.62249 6.21225
rtoes -23.4614
lfemur -45.4138 2.29594 -2.19988
ltibia 24.763
lfoot 6.3731 2.77523
ltoes 9.60377
264
root 4.03712 15.2219 6.13141 2.75148 -3.53885 -7.09779
lowerback -1.37455 6.4882 2.37785
upperback -1.34404 8.63984 1.59753
thorax -0.514972 4.311 0.407945
lowerneck -8.80794 -4.15002 1.49152
upperneck 8.68336 -5.92804 1.51653
head 4.46293 -2.78828 -0.145503
rclavicle -1.02793e-014 2.38542e-015
rhumerus -10.97 35.6945 -87.3396
rradius 73.2557
rwrist 3.65103
rhand -27.0845 -14.9662
rfingers 7.12502
rthumb -0.501694 -44.9453
lclavicle -1.02793e-014 2.38542e-015
lhumerus -60.2035 -7.65503 83.6945
lradius 65.5667
lwrist 24.0598
lhand -1.33811 15.4958
lfingers 7.12502
lthumb 24.3081 43.9745
rfemur 18.7006 -0.325536 14.2276
rtibia 37.8126
rfoot 11.8606 5.76249
rtoes -19.0086
lfemur -45.4596 2.76569 -4.38667
ltibia 26.3995
lfoot 7.04755 0.911951
ltoes 8.744
265
root 4.1108 15.2636 6.39778 2.17267 -2.86664 -6.25258
lowerback -1.47176 6.47756 1.59228
upperback -1.23316 8.62679 1.4133
thorax -0.432988 4.31063 0.660002
lowerneck -8.72798 -4.41564 1.33328
upperneck 8.71931 -6.27671 1.63881
head 4.47025 -2.95901 -0.0981367
rclavicle 8.11422e-014 8.74653e-015
rhumerus -12.4809 34.329 -87.3925
rradius 74.4045
rwrist 2.6069
rhand -27.2532 -14.8601
rfingers 7.12502
rthumb -0.664632 -44.8388
lclavicle 8.11422e-014 8.74653e-015
lhumerus -60.511 -7.39057 83.6056
lradius 65.3075
lwrist 24.0579
lhand -0.154422 15.5436
lfingers 7.12502
lthumb 25.4425 43.8655
rfemur 17.3918 0.349188 13.9295
rtibia 41.5957
rfoot 16.9287 5.69086
rtoes -13.5676
lfemur -45.2879 3.34086 -6.49342
ltibia 28.1359
lfoot 7.14666 -0.667148
ltoes 8.51133
266
root 4.18199 15.3017 6.65243 1.46981 -2.30049 -5.46854
lowerback -1.37699 6.46558 0.911836
upperback -1.05155 8.61606 1.24828
thorax -0.372814 4.30933 0.857297
lowerneck -8.62595 -4.63477 1.214
upperneck 8.74984 -6.56001 1.68863
head 4.46762 -3.10039 -0.0768022
rclavicle 2.23167e-014 -8.34896e-015
rhumerus -13.8784 32.9187 -87.4715
rradius 75.3455
rwrist 1.43591
rhand -27.4699 -14.9395
rfingers 7.12502
rthumb -0.873926 -44.9175
lclavicle 2.23167e-014 -8.34896e-015
lhumerus -60.7358 -7.02702 83.4935
lradius 65.0204
lwrist 24.014
lhand 0.372102 15.3807
lfingers 7.12502
lthumb 25.9467 43.6297
rfemur 15.8079 0.858846 13.5524
rtibia 45.9017
rfoot 21.666 6.05793
rtoes -7.60856
lfemur -44.8833 3.97605 -8.40905
ltibia 29.9064
lfoot 6.8363 -1.95494
ltoes 8.79429
267
root 4.2515 15.3375 6.89705 0.674308 -1.84479 -4.79009
lowerback -1.13461 6.45479 0.38361
upperback -0.827732 8.60664 1.1147
thorax -0.334084 4.30664 0.990331
lowerneck -8.50786 -4.80536 1.13008
upperneck 8.83332 -6.77724 1.67334
head 4.47716 -3.21074 -0.0793668
rclavicle -6.8969e-014 4.37326e-015
rhumerus -15.1726 31.4791 -87.577
rradius 76.0619
rwrist 0.122199
rhand -27.6597 -15.2257
rfingers 7.12502
rthumb -1.05724 -45.2028
lclavicle -6.8969e-014 4.37326e-015
lhumerus -60.9008 -6.58924 83.3927
lradius 64.6765
lwrist 23.9814
lhand 0.163435 15.0432
lfingers 7.12502
lthumb 25.7469 43.3214
rfemur 13.9708 1.17879 13.1276
rtibia 50.5825
rfoot 25.947 6.83463
rtoes -1.58117
lfemur -44.275 4.65958 -10.0686
ltibia 31.6287
lfoot 6.36102 -3.01867
ltoes 9.51506
268
root 4.3201 15.373 7.13343 -0.177276 -1.49436 -4.23333
lowerback -0.778424 6.43994 0.0309731
upperback -0.59863 8.5897 1.00668
thorax -0.331397 4.29865 1.04209
lowerneck -8.39008 -4.92521 1.08591
upperneck 9.02734 -6.92961 1.60977
head 4.52334 -3.28847 -0.102605
rclavicle 9.60565e-014 2.38542e-014
rhumerus -16.3856 30.028 -87.7325
rradius 76.5504
rwrist -1.32536
rhand -27.8382 -15.7806
rfingers 7.12502
rthumb -1.22961 -45.7568
lclavicle 9.60565e-014 2.38542e-014
lhumerus -61.0306 -6.10725 83.3136
lradius 64.2586
lwrist 24.0175
lhand -0.845617 14.6058
lfingers 7.12502
lthumb 24.7802 43.0205
rfemur 11.8948 1.28644 12.6712
rtibia 55.5164
rfoot 29.6479 7.97379
rtoes 3.96468
lfemur -43.5098 5.40255 -11.4743
ltibia 33.2325
lfoot 5.83671 -3.97904
ltoes 10.1425
269
root 4.38903 15.4098 7.36288 -1.03961 -1.24854 -3.78002
lowerback -0.358823 6.41291 -0.160969
upperback -0.387771 8.55434 0.913669
thorax -0.361201 4.28061 1.01456
lowerneck -8.28476 -4.99157 1.0688
upperneck 9.34976 -7.01528 1.52715
head 4.61704 -3.33118 -0.135342
rclavicle 5.3442e-014 1.78906e-014
rhumerus -17.5271 28.5917 -87.9421
rradius 76.8258
rwrist -2.85326
rhand -27.9928 -16.6023
rfingers 7.12502
rthumb -1.37896 -46.5775
lclavicle 5.3442e-014 1.78906e-014
lhumerus -61.1332 -5.5961 83.2674
lradius 63.7682
lwrist 24.169
lhand -2.56587 14.0869
lfingers 7.12502
lthumb 23.1306 42.7183
rfemur 9.58071 1.16853 12.1633
rtibia 60.6169
rfoot 32.6457 9.36473
rtoes 8.64043
lfemur -42.6293 6.2071 -12.6692
ltibia 34.6708
lfoot 5.38101 -4.89727
ltoes 10.7357
